<svg xmlns="http://www.w3.org/2000/svg" width="118" height="118" viewBox="0 0 118 118" fill="none">
    <path opacity="0.4" d="M58.8537 108.167C86.0077 108.167 108.02 86.154 108.02 59C108.02 31.846 86.0077 9.83331 58.8537 9.83331C31.6997 9.83331 9.68701 31.846 9.68701 59C9.68701 86.154 31.6997 108.167 58.8537 108.167Z" fill="#88B14B"/>
    <path d="M73.602 50.2975L59.3437 42.0867C55.8037 40.0217 51.5262 40.0217 47.9862 42.0867C44.4462 44.1517 42.332 47.79 42.332 51.92V68.3908C42.332 72.4716 44.4462 76.1591 47.9862 78.2241C49.7562 79.2566 51.7229 79.7483 53.6404 79.7483C55.607 79.7483 57.5245 79.2566 59.2945 78.2241L73.5529 70.0133C77.0929 67.9483 79.207 64.31 79.207 60.18C79.3054 56.05 77.1912 52.3625 73.602 50.2975Z" fill="#88B14B"/>
    </svg>